<?xml version="1.0" encoding="utf-8"?>
<!-- Generator: Adobe Illustrator 19.1.0, SVG Export Plug-In . SVG Version: 6.00 Build 0)  -->
<svg version="1.1" id="Layer_1" xmlns="http://www.w3.org/2000/svg" xmlns:xlink="http://www.w3.org/1999/xlink" x="0px" y="0px"
	 viewBox="0 0 380.6 258.8" style="enable-background:new 0 0 380.6 258.8;" xml:space="preserve">
<style type="text/css">
	.st0{fill-rule:evenodd;clip-rule:evenodd;fill:#61BEAE;}
</style>
<g>
	<path class="st0" d="M378.4,63.5l-41-42.8l17.8-11.4l1-8.9L348,0l-21.5,15.4l-26.8,0l-16.4-10l-5.9,1.2l0.1,6.5l10.6,11.7l-1.4,6.1
		L162.4,44.4L33.5,40.8l-13.9,5.8l-10.2,13L4.1,90l-0.9,21.9L0,132.3l0.9,20.3l3.6,0.7l5.2-5.7l4.2-19.1l-3.4-26.5l1.2-0.2l8.1,40.3
		l-5.5,34.9l5,69.8l0.5,7.7l4.9,4.2l21.6,0l7-2.1l-19.4-31.5l9.6-40l5,0l17.6,53.2l9.1,13.7l4.5,2.7l23.9,0l3.1-3.8l-20.7-12.7
		l-14-43.2l3.5-7l8.2,0.8l5.2,12.7l7.5-12.3l7.3,12.4l6.1-13.5l18.1-13.9L192,168l10.8,13.2l9.1,64.4l4.8,9.3l21.9,0l2.4-3.5
		l-13.3-18.5l-1.6-35.2l7.2,4l7.6,23.4l9.6,30.4l4.3,3.3l19.6,0l1.6-4.4l-5.7-5.3L251.7,213l4.3-37.8l20.7-15.3l30.1-56l34.7-16
		l31.9-3.6l2.7-3l4.5-12.6L378.4,63.5z M378.4,63.5"/>
</g>
</svg>
