<?xml version="1.0" encoding="utf-8"?>
<!-- Generator: Adobe Illustrator 19.1.0, SVG Export Plug-In . SVG Version: 6.00 Build 0)  -->
<svg version="1.1" id="Layer_1" xmlns="http://www.w3.org/2000/svg" xmlns:xlink="http://www.w3.org/1999/xlink" x="0px" y="0px"
	 viewBox="0 0 661.9 653" style="enable-background:new 0 0 661.9 653;" xml:space="preserve">
<style type="text/css">
	.st0{clip-path:url(#SVGID_2_);fill:#61BEAE;}
	.st1{fill:#61BEAE;}
</style>
<g>
	<g>
		<defs>
			<rect id="SVGID_1_" width="661.9" height="653"/>
		</defs>
		<clipPath id="SVGID_2_">
			<use xlink:href="#SVGID_1_"  style="overflow:visible;"/>
		</clipPath>
		<path class="st0" d="M624.9,132.4c2.9-0.5,5.8-0.7,8.6-0.7c3,0,5.9,0.2,8.7,0.7L341,2.3c-9.3-4-20-2.7-28.1,3.4l-299,227.5
			C15.7,232.7,624.9,132.4,624.9,132.4L624.9,132.4z M624.9,132.4"/>
	</g>
	<path class="st1" d="M607.5,442.4c20.3,0,39,7.4,54,19.8V184.5c0-13.4-9.2-24.2-21.3-27.2c-2.2-0.6-4.4-0.8-6.6-0.8
		c-1.5,0-3,0.2-4.6,0.4L33.6,254.8l-10.2,1.7C9.9,258.7,0,270.4,0,284.1v172.7c11.3-9.1,25.4-14.5,40.6-14.5
		c37.4,0,67.8,32.6,67.8,72.8c0,40.2-30.3,72.8-67.8,72.8c-15.2,0-29.2-5.4-40.6-14.5v51.3c0,15.7,12.8,28,27.9,28
		c1.5,0,3-0.2,4.6-0.4l492.8-81c-3.8-10.6-5.9-22.2-5.9-34.2C519.4,484.8,558.8,442.4,607.5,442.4L607.5,442.4z M327.4,481.3
		c-30.2,0-54.6-26.2-54.6-58.6c0-32.4,24.4-58.6,54.6-58.6c30.2,0,54.6,26.2,54.6,58.6C381.9,455,357.5,481.3,327.4,481.3
		L327.4,481.3z M502.4,346.5c-9.4,0-18.3-2.6-26.1-7.1c-17-9.9-28.5-29.3-28.5-51.5c0-32.4,24.4-58.6,54.6-58.6
		c20.5,0,38.2,12.1,47.6,30c4.4,8.5,7,18.2,7,28.6C557,320.3,532.6,346.5,502.4,346.5L502.4,346.5z M502.4,346.5"/>
</g>
</svg>
