<?xml version="1.0" encoding="utf-8"?>
<!-- Generator: Adobe Illustrator 19.1.0, SVG Export Plug-In . SVG Version: 6.00 Build 0)  -->
<svg version="1.1" id="Layer_1" xmlns="http://www.w3.org/2000/svg" xmlns:xlink="http://www.w3.org/1999/xlink" x="0px" y="0px"
	 viewBox="0 0 17.2 10.5" style="enable-background:new 0 0 17.2 10.5;" xml:space="preserve">
<style type="text/css">
	.st0{clip-path:url(#SVGID_2_);fill:#61BEAE;}
</style>
<g>
	<g>
		<defs>
			<rect id="SVGID_1_" y="0" width="18" height="11"/>
		</defs>
		<clipPath id="SVGID_2_">
			<use xlink:href="#SVGID_1_"  style="overflow:visible;"/>
		</clipPath>
		<path class="st0" d="M7.1,3.5C6.7,4.1,6.5,4.9,6.3,5.6C5.7,4.5,4.8,3.5,4,3.1c0.6,1.2,1.5,2.6,2.2,3.5c0,0.1,0,0.3,0,0.4v0.1l0,0
			v0l0,0c0,0,0,0.1,0,0.1v0.1l0,0.1v0.1l0,0v0.3c0,0.4,0,0.7,0,1.1c-1.1-1-3-1.9-4.3-1.9c1.4,0.9,3.3,1.9,4.3,2.3
			c0,0.3,0.1,0.5,0.1,0.8c-3.9,1.6-4.4-1.6-6.3-4c1.2-0.4,2.3-0.6,3.2-0.6C2.9,4.3,3,2.8,2.8,1.4C5,1.7,6.4,2.5,7.1,3.5L7.1,3.5z
			 M17.2,0c-1.9,5.3-0.5,11.4-9.8,10C6.5,4.1,8.6-0.1,17.2,0L17.2,0z M14.6,2.6C12,3.3,8.8,6.7,8.1,9.3C9.3,8.5,12.4,5.3,14.6,2.6
			L14.6,2.6z M14.6,2.6"/>
	</g>
</g>
</svg>
