<?xml version="1.0" encoding="utf-8"?>
<!-- Generator: Adobe Illustrator 19.1.0, SVG Export Plug-In . SVG Version: 6.00 Build 0)  -->
<svg version="1.1" id="Layer_1" xmlns="http://www.w3.org/2000/svg" xmlns:xlink="http://www.w3.org/1999/xlink" x="0px" y="0px"
	 viewBox="0 0 457.2 54.8" style="enable-background:new 0 0 457.2 54.8;" xml:space="preserve">
<style type="text/css">
	.st0{fill:#714025;}
	.st1{fill:#5F301E;}
</style>
<g>
	<path class="st0" d="M443.8,54.8c7.4,0,13.4-9.5,13.4-21.1V21.1c0-11.6-6-21.1-13.4-21.1H13.4C6,0,0,9.5,0,21.1v12.6
		c0,11.6,6,21.1,13.4,21.1H443.8z"/>
	<ellipse class="st1" cx="42.8" cy="19.8" rx="22.2" ry="16.5"/>
	<ellipse class="st1" cx="306.2" cy="31.1" rx="22.2" ry="16.5"/>
	<path class="st1" d="M433.3,0.3h-28.9c-4.7,3-7.7,7.5-7.7,12.5c0,9.1,9.9,16.5,22.2,16.5c12.2,0,22.2-7.4,22.2-16.5
		C441,7.8,438,3.3,433.3,0.3z"/>
	<ellipse class="st1" cx="77.5" cy="38.1" rx="11.9" ry="8.8"/>
	<ellipse class="st1" cx="247.5" cy="37.1" rx="11.9" ry="8.8"/>
	<ellipse class="st1" cx="355.5" cy="14.1" rx="11.9" ry="8.8"/>
	<path class="st1" d="M381.9,54.6h19.2c1.4-1.5,2.3-3.2,2.3-5.2c0-4.9-5.3-8.8-11.9-8.8c-6.6,0-11.9,4-11.9,8.8
		C379.6,51.4,380.5,53.2,381.9,54.6z"/>
	<ellipse class="st1" cx="129.8" cy="24.1" rx="17.2" ry="12.8"/>
	<path class="st1" d="M206.4,0.3c-0.1,0.5-0.1,1-0.1,1.5c0,7.1,7.7,12.8,17.2,12.8c9.5,0,17.2-5.7,17.2-12.8c0-0.5-0.1-1-0.1-1.5
		H206.4z"/>
	<path class="st1" d="M203.3,54.3c0.8-1.7,1.2-3.6,1.2-5.5c0-9.8-10.7-17.8-24-17.8c-13.2,0-24,8-24,17.8c0,1.9,0.4,3.8,1.2,5.5
		H203.3z"/>
</g>
</svg>
