<?xml version="1.0" encoding="utf-8"?>
<!-- Generator: Adobe Illustrator 19.1.0, SVG Export Plug-In . SVG Version: 6.00 Build 0)  -->
<svg version="1.1" id="Layer_1" xmlns="http://www.w3.org/2000/svg" xmlns:xlink="http://www.w3.org/1999/xlink" x="0px" y="0px"
	 viewBox="0 0 470.3 37.1" style="enable-background:new 0 0 470.3 37.1;" xml:space="preserve">
<style type="text/css">
	.st0{fill:#ECEDC1;}
</style>
<path class="st0" d="M6.7,2.1C1.4,5.4,2,7.1,0.8,9.9c-1.6,3.8-0.9,8.9,2.5,11.2c2.7,1.9,6.4,1.6,9.7,1.3c18.3-1.8,36.6-3.6,54.9-5.4
	c8.5-0.8,17.1-6.4,25.5-4.9c8.3,1.5,16,10.1,24.3,11.7c10,1.9,20.3,0.6,30.3-0.8c16.3-2.2,32.6-4.4,48.8-6.6c3.2-0.4,9.5-1.9,12.6-1
	c13.1,4,10,20.8,23.7,21.3c6.4,0.2,8.4,1.7,11.3-4c2.9-5.7,8-11,13.4-14.5c10.7-6.9,24.8,2.7,37.4,0.7c4.5-0.7,10.4-7.1,14.9-7.9
	c11.8-2,21.5,10.7,33.5,10.2c6.7-0.3,15.6-7,22.2-8.5c14.2-3.3,26.4,4.6,41,3.4c10.8-0.9,19.5-7.7,30.4-8c10.9-0.4,27.2,6,30.7,16.3
	c6.4-5.6,0.2-16.8-7.7-20.3c-4.6-2-15.7-1.2-15.7-1.2L21.7,2.1C21.7,2.1,14.2-2.6,6.7,2.1z"/>
</svg>
