<?xml version="1.0" encoding="utf-8"?>
<!-- Generator: Adobe Illustrator 19.1.0, SVG Export Plug-In . SVG Version: 6.00 Build 0)  -->
<svg version="1.1" id="Layer_1" xmlns="http://www.w3.org/2000/svg" xmlns:xlink="http://www.w3.org/1999/xlink" x="0px" y="0px"
	 viewBox="0 0 561.3 134.9" style="enable-background:new 0 0 561.3 134.9;" xml:space="preserve">
<style type="text/css">
	.st0{fill:#A92D25;}
	.st1{fill:#8F201E;}
	.st2{fill:#C33C28;}
</style>
<g>
	<g>
		<path class="st0" d="M20.9,60L0,94.3c47.5,19.3,119.5,34.6,200.8,40.5V56.7c-80.3-7-150.3-23-195.1-42.7L20.9,60z"/>
		<polygon class="st1" points="61.1,74.9 200.8,134.9 200.6,89.2 		"/>
	</g>
</g>
<g>
	<g>
		<path class="st0" d="M555.6,13.9c-44.8,19.7-114.8,35.8-195.1,42.7v78.2c81.3-6,153.2-21.2,200.8-40.5L540.3,60L555.6,13.9z"/>
		<polygon class="st1" points="360.5,134.9 500.2,74.9 360.6,89.2 		"/>
	</g>
</g>
<path class="st2" d="M281.8,28.9L281.8,28.9c-0.4,0-0.7,0-1.1,0c-0.4,0-0.7,0-1.1,0v0c-1.7,0-3.3,0-5,0c-87,0-164.4-11.4-213.5-29
	v74.8c47.8,19.1,127.7,31.7,218.4,32v0c0.4,0,0.7,0,1.1,0c0.4,0,0.7,0,1.1,0v0c90.7-0.3,170.6-12.9,218.4-32V0
	c-49,17.6-126.4,29-213.5,29C285.1,29,283.4,28.9,281.8,28.9z"/>
</svg>
