<?xml version="1.0" encoding="utf-8"?>
<!-- Generator: Adobe Illustrator 19.1.0, SVG Export Plug-In . SVG Version: 6.00 Build 0)  -->
<svg version="1.1" id="Layer_1" xmlns="http://www.w3.org/2000/svg" xmlns:xlink="http://www.w3.org/1999/xlink" x="0px" y="0px"
	 viewBox="0 0 553.4 59.6" style="enable-background:new 0 0 553.4 59.6;" xml:space="preserve">
<style type="text/css">
	.st0{fill:#788034;}
	.st1{fill:#8E9C39;}
	.st2{fill:#B0B43D;}
</style>
<g>
	<path class="st0" d="M23.5,29.9c-4.6,3.7-11,4.1-16.2,6.8C2,39.4-1.9,46.9,2.5,50.9c4.8,4.4,11.8-1.1,17.8-3.6
		c9.6-4,20.3,0.5,30.6,2c17.5,2.7,35-3.1,52.5-6.1c46.5-8,93.8,4.4,141,6.1c24.9,0.9,49.8-1.3,74.3-6.1c15.3-3,61.8,0.4,69.7,2.4
		c9.3,2.4,19,2.9,28.6,3.1c18.2,0.4,36.4-0.5,54.5-2.7c12.3-1.5,25.3-3.4,36.4,2.1c4.5,2.3,8.4,5.7,12.9,8c4.7,2.4,9.9,3.6,15.1,3.5
		c6.2-0.1,12.9-2.6,16-8s0.8-13.8-5.3-15.1c12.6-6.6,5-23.5-0.5-13.8c0.1-2.9,0.2-5.9-1.2-8.4c-1.4-2.5-4.8-4.1-7.2-2.6
		c-1.8,1.1-2.5,3.5-4.2,4.7c-2.5,1.8-6.2,0.2-7.8-2.4c-1.6-2.6-1.8-5.8-1.8-8.9c-15.9-6-30,12.8-46.6,16.7
		c-12.4,2.9-25.4-2.9-37.9-0.6c-7.2,1.3-13.7,5.2-21,6.4c-15.1,2.5-29.4-7.2-44.6-9c-13.1-1.6-26.2,2.7-39.2,5.2
		c-20.2,3.9-41,3.4-61.6,3.1c-45.9-0.8-93.8-10.1-139.7-10c-23.2,0-45-12.1-67.5-6.5c-16,4-9.8,10.2-13.5,9.5
		C49.5,19.3,32.8,7.1,27.8,8.3C9.8,12.8,21.8,25,23.5,29.9z"/>
	<path class="st1" d="M23.5,25.9c-4.6,3.7-13.1,1.8-18.4,4.4s-7,12.6-2.6,16.6c4.8,4.4,8.4-3.8,14.4-6.3c9.6-4,23.8,3.2,34,4.8
		c17.5,2.7,45-8.3,62.5-11.3c46.5-8,83.8,9.6,131,11.2c24.9,0.9,38.4-5.4,62.8-10.2c15.3-3,73.3,4.5,81.2,6.5
		c9.3,2.4,19,2.9,28.6,3.1c18.2,0.4,40.9-7.2,59-9.4c12.3-1.5,20.9,3.3,31.9,8.8c4.5,2.3,7.3-1.9,11.8,0.4
		c4.7,2.4,11,11.2,16.3,11.1c6.2-0.1,12.9-2.6,16-8s0.8-13.8-5.3-15.1c12.6-6.6,5-23.5-0.5-13.8c0.1-2.9,0.2-5.9-1.2-8.4
		c-1.4-2.5-4.8-4.1-7.2-2.6c-1.8,1.1-2.5,3.5-4.2,4.7c-2.5,1.8-6.2,0.2-7.8-2.4c-1.6-2.6-1.8-5.8-1.8-8.9c-15.9-6-30,12.8-46.6,16.7
		c-12.4,2.9-25.4-2.9-37.9-0.6c-7.2,1.3-13.7,5.2-21,6.4c-15.1,2.5-29.4-7.2-44.6-9c-13.1-1.6-26.2,2.7-39.2,5.2
		c-20.2,3.9-41,3.4-61.6,3.1c-45.9-0.8-93.8-10.1-139.7-10c-23.2,0-45-12.1-67.5-6.5c-16,4-9.8,10.2-13.5,9.5
		C49.5,15.3,32.8,3.1,27.8,4.3C9.8,8.8,21.8,21,23.5,25.9z"/>
	<ellipse class="st2" cx="86.6" cy="18.3" rx="20.2" ry="5.5"/>
	<ellipse class="st2" cx="34.6" cy="18.6" rx="8.2" ry="6.2"/>
	<ellipse class="st2" cx="537.1" cy="40.6" rx="9.2" ry="7.2"/>
	<path class="st2" d="M518.1,10.9c0.6,1.4-0.3,3.5,11.2,11c8.3,5.4-21.4-1.8-25-0.3c-8.6,3.4-16.3,4.2-17.3,1.8
		c-1-2.4,5.2-7.2,13.8-10.6C509.4,9.2,517.2,8.4,518.1,10.9z"/>
	<path class="st2" d="M60.5,33.2c-3.5-2.4-6-6.1-9.5-8.6c-0.4-0.3-1-0.6-1.4-0.4C49,24.6,49,25.4,49.2,26c0.6,2.7,1.4,5.3,2.3,7.9
		c-2.9-0.3-5.8-0.6-8.6-0.9c-2.6-0.3-5.5-0.5-7.7,1c5.1,1.4,10.2,2.9,15.3,4.3c3.8,1.1,7.6,2.1,11.6,2.4c8.3,0.5,16.3-2.6,24-5.7
		C77.4,36.6,67.7,38.1,60.5,33.2z"/>
	<ellipse class="st2" cx="138.1" cy="22.1" rx="13.8" ry="3.8"/>
	<ellipse class="st2" cx="244.6" cy="34.6" rx="33.8" ry="6.8"/>
	<ellipse class="st2" cx="370.6" cy="23.1" rx="11.8" ry="4.2"/>
	<ellipse class="st2" cx="453.8" cy="27.8" rx="13" ry="5"/>
</g>
</svg>
