<?xml version="1.0" encoding="utf-8"?>
<!-- Generator: Adobe Illustrator 19.1.0, SVG Export Plug-In . SVG Version: 6.00 Build 0)  -->
<svg version="1.1" id="Layer_1" xmlns="http://www.w3.org/2000/svg" xmlns:xlink="http://www.w3.org/1999/xlink" x="0px" y="0px"
	 viewBox="0 0 403.1 136.2" style="enable-background:new 0 0 403.1 136.2;" xml:space="preserve">
<style type="text/css">
	.st0{fill:#E89624;}
	.st1{fill:#D07D29;}
	.st2{fill:#ECEDC1;}
</style>
<g>
	<path class="st0" d="M201.5,0C91.4,0,2,60.7,0,136.2h403.1C401.1,60.7,311.6,0,201.5,0z"/>
	<path class="st1" d="M367,59.4c-41.1,33-136.4,56.1-247.3,56.1c-40.9,0-79.6-3.1-114.3-8.7c-3.2,9.5-5.1,19.3-5.4,29.4h403.1
		C402.3,107.7,389.1,81.3,367,59.4z"/>
	<ellipse transform="matrix(0.6945 0.7195 -0.7195 0.6945 57.3276 -63.2689)" class="st2" cx="103.2" cy="35.9" rx="3.5" ry="8.9"/>
	
		<ellipse transform="matrix(6.368563e-02 0.998 -0.998 6.368563e-02 199.4674 -105.6022)" class="st2" cx="156" cy="53.5" rx="3.5" ry="8.9"/>
	<ellipse transform="matrix(0.3638 0.9315 -0.9315 0.3638 169.28 -98.8563)" class="st2" cx="157" cy="74.5" rx="3.5" ry="8.9"/>
	
		<ellipse transform="matrix(-0.2914 0.9566 -0.9566 -0.2914 363.7261 -167.7412)" class="st2" cx="244" cy="50.8" rx="3.5" ry="8.9"/>
	
		<ellipse transform="matrix(-0.2914 0.9566 -0.9566 -0.2914 308.7036 -101.6779)" class="st2" cx="192" cy="63.5" rx="3.5" ry="8.9"/>
	
		<ellipse transform="matrix(-0.7089 0.7053 -0.7053 -0.7089 520.5845 -85.8635)" class="st2" cx="278" cy="64.5" rx="3.5" ry="8.9"/>
	
		<ellipse transform="matrix(-0.1947 0.9809 -0.9809 -0.1947 458.686 -230.1793)" class="st2" cx="323.8" cy="73.2" rx="3.5" ry="8.9"/>
	
		<ellipse transform="matrix(-0.6092 0.793 -0.793 -0.6092 587.9957 -186.022)" class="st2" cx="339.8" cy="51.9" rx="3.5" ry="8.9"/>
	
		<ellipse transform="matrix(-0.9037 0.4282 -0.4282 -0.9037 620.0437 -47.1489)" class="st2" cx="315.3" cy="46.2" rx="3.5" ry="8.9"/>
	
		<ellipse transform="matrix(-0.1947 0.9809 -0.9809 -0.1947 331.7808 -134.6542)" class="st2" cx="221.2" cy="68.9" rx="3.5" ry="8.9"/>
	<ellipse transform="matrix(0.3598 0.933 -0.933 0.3598 139.3391 -172.6705)" class="st2" cx="195.5" cy="15.2" rx="3.5" ry="8.9"/>
	<ellipse transform="matrix(-0.3587 0.9334 -0.9334 -0.3587 203.511 -96.8142)" class="st2" cx="135" cy="21.5" rx="3.5" ry="8.9"/>
	<ellipse transform="matrix(0.2551 0.9669 -0.9669 0.2551 100.0277 -38.7575)" class="st2" cx="75.2" cy="45.5" rx="3.5" ry="8.9"/>
	
		<ellipse transform="matrix(-0.6908 0.7231 -0.7231 -0.6908 246.8859 -12.3138)" class="st2" cx="126.1" cy="46.6" rx="3.5" ry="8.9"/>
	
		<ellipse transform="matrix(0.2243 0.9745 -0.9745 0.2243 269.5957 -188.5282)" class="st2" cx="253.2" cy="75.1" rx="3.5" ry="8.9"/>
	
		<ellipse transform="matrix(-0.4474 0.8943 -0.8943 -0.4474 253.5788 -115.4176)" class="st2" cx="162.4" cy="20.6" rx="3.5" ry="8.9"/>
	
		<ellipse transform="matrix(-0.4474 0.8943 -0.8943 -0.4474 344.8977 -162.0182)" class="st2" cx="222.5" cy="25.5" rx="3.5" ry="8.9"/>
	
		<ellipse transform="matrix(-0.4474 0.8943 -0.8943 -0.4474 363.8159 -197.7896)" class="st2" cx="243" cy="13.5" rx="3.5" ry="8.9"/>
	<ellipse transform="matrix(-0.1408 0.99 -0.99 -0.1408 339.1381 -245.3106)" class="st2" cx="276" cy="24.5" rx="3.5" ry="8.9"/>
	
		<ellipse transform="matrix(-0.6009 0.7993 -0.7993 -0.6009 447.0299 -146.1957)" class="st2" cx="260" cy="38.5" rx="3.5" ry="8.9"/>
	
		<ellipse transform="matrix(-0.6009 0.7993 -0.7993 -0.6009 526.4845 -148.5396)" class="st2" cx="300.3" cy="57.2" rx="3.5" ry="8.9"/>
	<ellipse transform="matrix(-0.1408 0.99 -0.99 -0.1408 246.1966 -127.7237)" class="st2" cx="178.5" cy="43" rx="3.5" ry="8.9"/>
	<ellipse transform="matrix(-0.1408 0.99 -0.99 -0.1408 282.9556 -162.5544)" class="st2" cx="212" cy="41.5" rx="3.5" ry="8.9"/>
	<ellipse transform="matrix(0.2565 0.9666 -0.9666 0.2565 136.4635 -42.9805)" class="st2" cx="96.2" cy="67.2" rx="3.5" ry="8.9"/>
	<ellipse transform="matrix(0.6779 0.7352 -0.7352 0.6779 63.6878 -16.9344)" class="st2" cx="51.2" cy="64.2" rx="3.5" ry="8.9"/>
</g>
</svg>
